<svg width="1194" height="370" viewBox="0 0 1194 370" fill="none" xmlns="http://www.w3.org/2000/svg">
<path d="M101.872 121.901C101.872 121.901 236.704 106.201 251.95 97.2091C267.195 88.2175 282.386 74.7725 305.227 70.2908C328.068 65.8091 481.397 38.8908 481.397 38.8908C481.397 38.8908 500.96 33.2816 529.237 54.5908C557.515 75.8999 619.508 144.337 636.885 142.11C654.289 139.856 662.977 115.192 657.54 103.974C652.103 92.7556 546.423 11.6625 528.145 6.36337C502.107 -1.19066 468.337 -0.373249 427 6.36337C385.689 13.1 109.467 72.1511 109.467 72.1511C109.467 72.1511 73.5938 89.4014 101.844 121.929L101.872 121.901Z" fill="#DADADA" stroke="#1D1D1B" stroke-width="0.5" stroke-miterlimit="10"/>
<g style="mix-blend-mode:multiply">
<path d="M646.693 109.555C646.693 109.555 645.846 126.89 635.819 125.255C622.24 123.056 537.953 29.8993 509.675 34.381C509.675 34.381 532.98 42.0196 560.111 67.1903C577.897 83.7077 654.152 173.877 646.693 109.555Z" fill="#706F6F"/>
</g>
<path d="M828.519 190.986L1075.89 107.046C1075.89 107.046 1136.35 91.1772 1145.15 95.7152C1153.95 100.253 1193.54 181.91 1193.54 190.986C1193.54 200.062 1186.92 230.476 1178.15 232.956C1171.79 234.76 1163.59 233.266 1159.47 221.09C1155.61 209.759 1140.78 131.653 1125.4 132.386C1110.01 133.119 986.875 177.344 986.875 177.344C986.875 177.344 950.592 195.496 935.21 209.11C919.828 222.724 847.262 240.877 847.262 240.877C847.262 240.877 820.869 219.314 828.574 190.958L828.519 190.986Z" fill="#DADADA" stroke="#1D1D1B" stroke-width="0.5" stroke-miterlimit="10"/>
<g style="mix-blend-mode:multiply">
<path d="M846.415 192.255C846.415 192.255 1125.83 93.0656 1141.08 102.085C1141.08 102.085 1091.35 109.104 1026.98 135.571C962.614 162.038 846.415 197.666 846.415 197.666V192.255Z" fill="#706F6F"/>
</g>
<g style="mix-blend-mode:multiply">
<path d="M1130.62 130.131C1130.62 130.131 1139.52 130.131 1144.22 139.856C1148.92 149.58 1170.91 209.505 1170.91 209.505C1170.91 209.505 1173.02 223.542 1185.04 201.951C1185.04 201.951 1176.65 228.897 1170.4 221.09C1164.14 213.282 1143.7 146.874 1143.7 146.874C1143.7 146.874 1135.86 127.876 1130.62 130.131Z" fill="#706F6F"/>
</g>
</svg>
