<svg width="1197" height="485" viewBox="0 0 1197 485" fill="none" xmlns="http://www.w3.org/2000/svg">
<path d="M644.528 146.204C644.528 146.204 671.522 149.361 673.872 176.618C673.872 176.618 660.949 149.699 644.528 146.204Z" fill="white"/>
<path d="M771.361 128.066C770.705 118.455 745.214 113.353 736.635 110.027C728.056 106.701 693.74 115.551 693.74 115.551C660.49 106.701 544.7 90.0989 478.227 90.0989C411.753 90.0989 389.24 122.175 381.726 121.076C374.213 119.977 334.542 118.878 317.384 115.551C300.226 112.225 303.45 75.7237 210.146 40.9131C116.87 6.10257 23.5665 5.90527 23.5665 5.90527C-12.9079 19.0403 5.09706 58.0225 5.09706 58.0225L10.698 75.921C22.501 81.6429 19.277 105.573 23.5665 140.976C27.856 176.378 43.9485 221.731 62.1721 249.382C80.3956 277.033 149.028 308.01 183.344 309.11C217.66 310.209 247.686 303.585 270.199 265.956C292.712 228.355 316.318 161.975 316.318 161.975L344.186 166.4C344.186 166.4 352.137 167.274 358.804 175.11C365.47 182.946 370.907 197.744 379.568 223.901C400.223 286.194 448.2 334.534 448.2 334.534C448.2 334.534 463.5 355.477 539.564 370.218C602.622 382.451 656.227 363.284 656.227 363.284C704.641 343.075 715.324 236.557 715.324 236.557C715.324 236.557 720.324 199.069 736.662 189.626C756.798 177.957 759.257 177.111 771.388 174.631C781.251 172.63 772.044 137.622 771.388 128.01L771.361 128.066ZM239.107 270.437C213.37 284.813 151.186 290.337 112.581 259.388C73.975 228.411 55.7515 174.208 50.3964 110.055C45.0414 45.9022 69.7948 38.9401 69.7948 38.9401C69.7948 38.9401 110.449 37.0516 162.989 50.2993C215.529 63.5752 273.423 101.176 274.516 125.53C275.582 149.855 264.872 256.062 239.135 270.437H239.107ZM660.49 339.016C635.818 351.192 601.83 352.292 573.251 350.065C544.673 347.866 470.686 345.639 443.883 261.559C443.883 261.559 436.37 221.731 429.949 212.88C423.529 204.03 404.212 172.066 404.212 160.932C404.212 137.734 423.747 124.374 423.747 124.374C423.747 124.374 446.042 109.999 474.975 109.999C503.936 109.999 651.883 117.75 672.265 146.501C692.647 175.251 691.554 208.455 694.778 235.007C698.002 261.559 685.134 326.811 660.462 338.987L660.49 339.016Z" fill="#B2B2B2" stroke="#1D1D1B" stroke-width="0.5" stroke-miterlimit="10"/>
<g style="mix-blend-mode:multiply">
<path d="M77.0074 39.0247C77.0074 39.0247 46.1066 30.1459 39.6587 66.2248C33.2381 102.304 35.4784 152.504 54.6583 207.384C73.8381 262.263 127.58 281.966 127.58 281.966C127.58 281.966 171.158 298.765 211.212 291.437C231.593 287.716 241.621 277.54 247.549 261.812C247.549 261.812 208.233 308.151 117.635 263.081C101.242 254.935 88.6738 236.332 78.7287 218.207C59.4942 183.2 51.0245 140.215 50.3688 110.027C48.6475 30.0895 76.9801 38.9965 76.9801 38.9965L77.0074 39.0247Z" fill="#706F6F"/>
</g>
<g style="mix-blend-mode:multiply">
<path d="M423.774 117.778C423.774 117.778 391.371 128.743 394.595 174.687C397.819 220.632 427.845 276.639 436.424 293.438C445.003 310.237 479.319 341.947 508.253 350.995C537.187 360.043 618.933 361.424 650.981 343.018C650.981 343.018 561.312 364.778 492.543 328.22C492.543 328.22 456.068 307.926 445.714 266.83C445.714 266.83 437.49 229.341 431.943 216.404C423.037 195.715 411.78 190.725 404.267 160.96C397.846 135.508 423.802 117.75 423.802 117.75L423.774 117.778Z" fill="#706F6F"/>
</g>
<g style="mix-blend-mode:multiply">
<path d="M411.726 209.611C411.726 209.611 413.857 229.51 434.239 257.19L411.726 209.611Z" fill="#706F6F"/>
</g>
<g style="mix-blend-mode:multiply">
<path d="M369.377 137.791C369.377 137.791 350.661 163.272 358.694 166.259C366.726 169.247 369.377 137.791 369.377 137.791Z" fill="#706F6F"/>
</g>
<g style="mix-blend-mode:multiply">
<path d="M294.516 128.405C294.516 128.405 301.455 163.779 305.198 160.989C308.941 158.198 294.516 128.405 294.516 128.405Z" fill="#706F6F"/>
</g>
<g style="mix-blend-mode:multiply">
<path d="M255.5 273.453C255.5 273.453 284.543 234.302 305.827 168.655C305.827 168.655 268.123 251.073 255.5 273.453Z" fill="#706F6F"/>
</g>
<g style="mix-blend-mode:multiply">
<path d="M305.826 126.206C305.826 126.206 355.989 136.128 369.349 132.266L382.19 126.206C382.19 126.206 364.021 130.97 353.311 129.673C342.601 128.376 305.826 126.206 305.826 126.206Z" fill="#706F6F"/>
</g>
<g style="mix-blend-mode:multiply">
<path d="M735.569 148.248C735.569 148.248 738.821 138.862 741.198 148.248C743.575 157.634 741.198 178.577 741.198 178.577C741.198 178.577 736.635 183.538 735.569 178.577C734.504 173.616 735.569 148.248 735.569 148.248Z" fill="#706F6F"/>
</g>
<g style="mix-blend-mode:multiply">
<path d="M756.416 131.449C756.416 131.449 742.1 138.326 735.105 137.763C728.111 137.199 679.806 124.346 571.612 105.263C571.612 105.263 656.255 115.354 735.105 133.14C743.93 135.141 756.416 131.449 756.416 131.449Z" fill="#706F6F"/>
</g>
<g style="mix-blend-mode:multiply">
<path d="M294.515 117.778C294.515 117.778 280.09 78.7679 238.397 60.5593C216.867 51.1731 194.928 43.3936 176.513 37.6717C159.246 32.3163 145.12 28.7929 137.361 27.4681C121.323 24.7058 64.6581 14.2204 58.7839 14.7841C52.9098 15.3478 41.1341 16.7008 29.9049 17.1236C18.6757 17.5464 14.9326 17.1236 14.9326 17.1236C14.9326 17.1236 26.3258 22.7891 44.8772 19.745C59.4123 17.3773 92.4443 22.5073 92.4443 22.5073C92.4443 22.5073 242.659 36.5724 294.515 117.778Z" fill="#706F6F"/>
</g>
<path d="M641.528 152.11C641.528 152.11 668.522 155.267 670.872 182.523C670.872 182.523 657.949 155.605 641.528 152.11Z" fill="white"/>
</svg>
