<svg width="1243" height="550" viewBox="0 0 1243 550" fill="none" xmlns="http://www.w3.org/2000/svg">
<path opacity="0.75" d="M85.4351 142.689C83.0308 159.742 86.528 248.135 116.691 298.59C146.854 349.044 217.891 358.768 229.721 358.655C241.551 358.543 280.293 361.53 296.577 332.526C310.156 308.314 332.56 209.971 321.494 182.996C304.391 141.223 211.115 115.292 211.115 115.292C211.115 115.292 137.756 99.9016 118.713 102.72C118.713 102.72 91.4732 100.014 85.4625 142.661L85.4351 142.689Z" fill="#1D1D1B"/>
<path opacity="0.75" d="M443.349 226.319C443.349 226.319 440.371 199.401 496.818 179.275C528.948 167.831 662.005 188.38 662.005 188.38C662.005 188.38 714.162 199.823 721.32 211.718C728.478 223.613 747.167 260.312 743.97 318.743C740.855 375.708 723.998 394.283 709.517 404.177C709.517 404.177 690.119 418.073 651.213 420.892C578.4 426.191 550.095 417.678 525.014 399.103C443.377 338.615 443.377 226.319 443.377 226.319H443.349Z" fill="#1D1D1B"/>
<path d="M690.528 217.299C690.528 217.299 717.522 220.456 719.872 247.713C719.872 247.713 706.949 220.794 690.528 217.299Z" fill="white"/>
</svg>
