<svg width="1243" height="551" viewBox="0 0 1243 551" fill="none" xmlns="http://www.w3.org/2000/svg" xmlns:xlink="http://www.w3.org/1999/xlink">
<rect y="238.65" width="400.645" height="252.327" fill="url(#pattern0)"/>
<rect x="359.908" y="303.536" width="441.956" height="246.915" fill="url(#pattern1)"/>
<rect x="942.024" y="115.531" width="300.976" height="227.298" fill="url(#pattern2)"/>
<rect x="430.808" y="14.6503" width="300.32" height="227.298" fill="url(#pattern3)"/>
<path d="M64.9713 121.901C64.9713 121.901 199.804 106.201 215.049 97.2091C230.295 88.2175 245.486 74.7725 268.327 70.2908C291.167 65.8091 444.497 38.8908 444.497 38.8908C444.497 38.8908 464.059 33.2816 492.337 54.5908C520.615 75.8999 582.608 144.337 599.984 142.11C617.388 139.856 626.077 115.192 620.64 103.974C615.203 92.7556 509.522 11.6625 491.244 6.36337C465.207 -1.19066 431.437 -0.373249 390.099 6.36337C348.789 13.1 72.5667 72.1511 72.5667 72.1511C72.5667 72.1511 36.6934 89.4014 64.944 121.929L64.9713 121.901Z" fill="#DADADA" stroke="#1D1D1B" stroke-width="0.5" stroke-miterlimit="10"/>
<g style="mix-blend-mode:multiply">
<path d="M609.793 109.555C609.793 109.555 608.946 126.89 598.919 125.255C585.34 123.056 501.052 29.8993 472.774 34.381C472.774 34.381 496.08 42.0196 523.21 67.1903C540.997 83.7077 617.251 173.877 609.793 109.555Z" fill="#706F6F"/>
</g>
<path d="M791.619 190.986L1038.99 107.046C1038.99 107.046 1099.45 91.1772 1108.25 95.7152C1117.05 100.253 1156.64 181.91 1156.64 190.986C1156.64 200.062 1150.02 230.476 1141.25 232.956C1134.89 234.76 1126.69 233.266 1122.57 221.09C1118.71 209.759 1103.88 131.653 1088.5 132.386C1073.11 133.119 949.975 177.344 949.975 177.344C949.975 177.344 913.692 195.496 898.31 209.11C882.928 222.724 810.361 240.877 810.361 240.877C810.361 240.877 783.968 219.314 791.673 190.958L791.619 190.986Z" fill="#DADADA" stroke="#1D1D1B" stroke-width="0.5" stroke-miterlimit="10"/>
<g style="mix-blend-mode:multiply">
<path d="M809.515 192.255C809.515 192.255 1088.93 93.0656 1104.18 102.085C1104.18 102.085 1054.45 109.104 990.084 135.571C925.714 162.038 809.515 197.666 809.515 197.666V192.255Z" fill="#706F6F"/>
</g>
<g style="mix-blend-mode:multiply">
<path d="M1093.71 130.131C1093.71 130.131 1102.62 130.131 1107.32 139.856C1112.02 149.58 1134.01 209.505 1134.01 209.505C1134.01 209.505 1136.12 223.542 1148.14 201.951C1148.14 201.951 1139.75 228.897 1133.5 221.09C1127.24 213.282 1106.8 146.874 1106.8 146.874C1106.8 146.874 1098.96 127.876 1093.71 130.131Z" fill="#706F6F"/>
</g>
<path d="M820.361 194.256C819.705 184.644 794.214 179.542 785.635 176.216C777.056 172.89 742.74 181.741 742.74 181.741C709.49 172.89 593.7 156.288 527.227 156.288C460.753 156.288 438.24 188.365 430.726 187.266C423.213 186.166 383.542 185.067 366.384 181.741C349.226 178.415 352.45 141.913 259.146 107.103C165.87 72.292 72.5665 72.0947 72.5665 72.0947C36.0921 85.2297 54.0971 124.212 54.0971 124.212L59.698 142.11C71.501 147.832 68.277 171.763 72.5665 207.165C76.856 242.568 92.9485 287.92 111.172 315.571C129.396 343.223 198.028 374.2 232.344 375.299C266.66 376.398 296.686 369.774 319.199 332.145C341.712 294.544 365.318 228.164 365.318 228.164L393.186 232.59C393.186 232.59 401.137 233.464 407.804 241.299C414.47 249.135 419.907 263.933 428.568 290.091C449.223 352.383 497.2 400.723 497.2 400.723C497.2 400.723 512.5 421.666 588.564 436.408C651.622 448.641 705.227 429.474 705.227 429.474C753.641 409.264 764.324 302.746 764.324 302.746C764.324 302.746 769.324 265.258 785.662 255.816C805.798 244.146 808.257 243.301 820.388 240.82C830.251 238.819 821.044 203.811 820.388 194.199L820.361 194.256ZM288.107 336.627C262.37 351.002 200.186 356.527 161.581 325.578C122.975 294.6 104.751 240.397 99.3964 176.245C94.0414 112.092 118.795 105.13 118.795 105.13C118.795 105.13 159.449 103.241 211.989 116.489C264.529 129.765 322.423 167.366 323.516 191.719C324.582 216.044 313.872 322.252 288.135 336.627H288.107ZM709.49 405.205C684.818 417.382 650.83 418.481 622.251 416.254C593.673 414.056 519.686 411.829 492.883 327.748C492.883 327.748 485.37 287.92 478.949 279.07C472.529 270.219 453.212 238.255 453.212 227.122C453.212 203.924 472.747 190.563 472.747 190.563C472.747 190.563 495.042 176.188 523.975 176.188C552.936 176.188 700.883 183.94 721.265 212.69C741.647 241.44 740.554 274.644 743.778 301.196C747.002 327.748 734.134 393 709.462 405.177L709.49 405.205Z" fill="#B2B2B2" stroke="#1D1D1B" stroke-width="0.5" stroke-miterlimit="10"/>
<g style="mix-blend-mode:multiply">
<path d="M126.007 105.214C126.007 105.214 95.1066 96.3353 88.6587 132.414C82.2381 168.493 84.4784 218.694 103.658 273.573C122.838 328.453 176.58 348.155 176.58 348.155C176.58 348.155 220.158 364.955 260.212 357.626C280.593 353.905 290.621 343.73 296.549 328.002C296.549 328.002 257.233 374.341 166.635 329.27C150.242 321.124 137.674 302.521 127.729 284.397C108.494 249.389 100.024 206.404 99.3688 176.216C97.6475 96.279 125.98 105.186 125.98 105.186L126.007 105.214Z" fill="#706F6F"/>
</g>
<g style="mix-blend-mode:multiply">
<path d="M472.774 183.968C472.774 183.968 440.371 194.932 443.595 240.877C446.819 286.821 476.845 342.828 485.424 359.627C494.003 376.427 528.319 408.137 557.253 417.184C586.187 426.232 667.933 427.614 699.981 409.208C699.981 409.208 610.312 430.968 541.543 394.41C541.543 394.41 505.068 374.115 494.714 333.019C494.714 333.019 486.49 295.531 480.943 282.593C472.037 261.904 460.78 256.915 453.267 227.15C446.846 201.697 472.802 183.94 472.802 183.94L472.774 183.968Z" fill="#706F6F"/>
</g>
<g style="mix-blend-mode:multiply">
<path d="M460.726 275.8C460.726 275.8 462.857 295.7 483.239 323.379L460.726 275.8Z" fill="#706F6F"/>
</g>
<g style="mix-blend-mode:multiply">
<path d="M418.377 203.98C418.377 203.98 399.661 229.461 407.694 232.449C415.726 235.437 418.377 203.98 418.377 203.98Z" fill="#706F6F"/>
</g>
<g style="mix-blend-mode:multiply">
<path d="M343.516 194.594C343.516 194.594 350.455 229.968 354.198 227.178C357.941 224.387 343.516 194.594 343.516 194.594Z" fill="#706F6F"/>
</g>
<g style="mix-blend-mode:multiply">
<path d="M304.5 339.643C304.5 339.643 333.543 300.492 354.827 234.845C354.827 234.845 317.123 317.263 304.5 339.643Z" fill="#706F6F"/>
</g>
<g style="mix-blend-mode:multiply">
<path d="M354.826 192.396C354.826 192.396 404.989 202.317 418.349 198.456L431.19 192.396C431.19 192.396 413.021 197.159 402.311 195.863C391.601 194.566 354.826 192.396 354.826 192.396Z" fill="#706F6F"/>
</g>
<g style="mix-blend-mode:multiply">
<path d="M784.569 214.437C784.569 214.437 787.821 205.051 790.198 214.437C792.575 223.824 790.198 244.766 790.198 244.766C790.198 244.766 785.635 249.727 784.569 244.766C783.504 239.806 784.569 214.437 784.569 214.437Z" fill="#706F6F"/>
</g>
<g style="mix-blend-mode:multiply">
<path d="M805.416 197.638C805.416 197.638 791.1 204.516 784.105 203.952C777.111 203.388 728.806 190.535 620.612 171.453C620.612 171.453 705.255 181.544 784.105 199.33C792.93 201.331 805.416 197.638 805.416 197.638Z" fill="#706F6F"/>
</g>
<g style="mix-blend-mode:multiply">
<path d="M343.515 183.968C343.515 183.968 329.09 144.957 287.397 126.749C265.867 117.363 243.928 109.583 225.513 103.861C208.246 98.5057 194.12 94.9823 186.361 93.6576C170.323 90.8953 113.658 80.4098 107.784 80.9736C101.91 81.5373 90.1341 82.8903 78.9049 83.3131C67.6757 83.7359 63.9326 83.3131 63.9326 83.3131C63.9326 83.3131 75.3258 88.9786 93.8772 85.9344C108.412 83.5668 141.444 88.6967 141.444 88.6967C141.444 88.6967 291.659 102.762 343.515 183.968Z" fill="#706F6F"/>
</g>
<path opacity="0.75" d="M85.4351 143.689C83.0308 160.742 86.528 249.135 116.691 299.59C146.854 350.044 217.891 359.768 229.721 359.655C241.551 359.543 280.293 362.53 296.577 333.526C310.156 309.314 332.56 210.971 321.494 183.996C304.391 142.223 211.115 116.292 211.115 116.292C211.115 116.292 137.756 100.902 118.713 103.72C118.713 103.72 91.4732 101.014 85.4625 143.661L85.4351 143.689Z" fill="#1D1D1B"/>
<path opacity="0.75" d="M443.349 227.319C443.349 227.319 440.371 200.401 496.818 180.275C528.948 168.831 662.005 189.38 662.005 189.38C662.005 189.38 714.162 200.823 721.32 212.718C728.478 224.613 747.167 261.312 743.97 319.743C740.855 376.708 723.998 395.283 709.517 405.177C709.517 405.177 690.119 419.073 651.213 421.892C578.4 427.191 550.095 418.678 525.014 400.103C443.377 339.615 443.377 227.319 443.377 227.319H443.349Z" fill="#1D1D1B"/>
<path d="M690.528 218.299C690.528 218.299 717.522 221.456 719.872 248.713C719.872 248.713 706.949 221.794 690.528 218.299Z" fill="white"/>
<defs>
<pattern id="pattern0" patternContentUnits="objectBoundingBox" width="1" height="1">
<use xlink:href="#image0_8_9797" transform="scale(0.00163399 0.00268817)"/>
</pattern>
<pattern id="pattern1" patternContentUnits="objectBoundingBox" width="1" height="1">
<use xlink:href="#image1_8_9797" transform="scale(0.00148368 0.00274725)"/>
</pattern>
<pattern id="pattern2" patternContentUnits="objectBoundingBox" width="1" height="1">
<use xlink:href="#image2_8_9797" transform="scale(0.00217865 0.00297619)"/>
</pattern>
<pattern id="pattern3" patternContentUnits="objectBoundingBox" width="1" height="1">
<use xlink:href="#image3_8_9797" transform="scale(0.00218341 0.00296736)"/>
</pattern>
</defs>
</svg>
